# File created by Blade
# Date/Time:  Fri Jan 16 17:18:57 2015
#---------------------------------------------------------
:version 1.10
:name HOM
:units
  mass 1.0
  length 1.000000
  angle deg
:documentation
     Acclaim Skeleton File
:root
   axis xyz
   order TX TY TZ RX RY RZ
   position 0.000000 0.000000 0.000000
   orientation 0 0 0
:bonedata
   begin
      id 1
      name Spine_dum
      direction 0.000000 1.000000 0.000000
      length 7.170412
      axis 0.0 0.0 0.0 xyz
   end
   begin
      id 2
      name LeftUpLeg_dum
      direction 1.000000 0.000000 0.000000
      length 4.318350
      axis 0.0 0.0 0.0 xyz
   end
   begin
      id 3
      name RightUpLeg_dum
      direction -1.000000 0.000000 0.000000
      length 4.318350
      axis 0.0 0.0 0.0 xyz
   end
   begin
      id 4
      name Spine
      direction 0.000000 1.000000 0.000000
      length 0.000000
      axis 0.0 0.0 0.0 xyz
      dof rx ry rz
   end
   begin
      id 5
      name Spine_dum1
      direction 0.000000 1.000000 0.000000
      length 14.276153
      axis 0.0 0.0 0.0 xyz
   end
   begin
      id 6
      name Spine_dum2
      direction 0.000000 1.000000 0.000000
      length 10.718243
      axis 0.0 0.0 0.0 xyz
   end
   begin
      id 7
      name Spine_dum3
      direction 0.000000 1.000000 0.000000
      length 10.718243
      axis 0.0 0.0 0.0 xyz
   end
   begin
      id 8
      name Head
      direction 0.000000 1.000000 0.000000
      length 4.527550
      axis 0.0 0.0 0.0 xyz
      dof rx ry rz
   end
   begin
      id 9
      name LeftShoulder
      direction 1.000000 0.000000 0.000000
      length 7.058872
      axis 0.0 0.0 -90.0 xyz
      dof rx ry rz
   end
   begin
      id 10
      name LeftArm
      direction 1.000000 0.000000 0.000000
      length 10.955525
      axis 0.0 0.0 -90.0 xyz
      dof rx ry rz
   end
   begin
      id 11
      name LeftForeArm
      direction 1.000000 0.000000 0.000000
      length 8.193716
      axis 0.0 0.0 -90.0 xyz
      dof ry rz rx
   end
   begin
      id 12
      name LeftHand
      direction 0.000000 0.000000 0.000000
      length 0.000000
      axis 0.0 0.0 -90.0 xyz
      dof rx ry rz
   end
   begin
      id 13
      name LeftHand_dum1
      direction 0.000000 0.000000 0.000000
      length 0.000000
      axis 0.0 0.0 -90.0 xyz
   end
   begin
      id 14
      name LeftHand_dum2
      direction 1.000000 0.000000 0.000000
      length 3.937000
      axis 0.0 0.0 -90.0 xyz
   end
   begin
      id 15
      name LeftHandThumb1
      direction 0.000000 0.000000 1.000000
      length 3.937000
      axis 0.0 0.0 -90.0 xyz
      dof rx rz ry
   end
   begin
      id 16
      name RightShoulder
      direction -1.000000 0.000000 0.000000
      length 7.058872
      axis 0.0 0.0 90.0 xyz
      dof rx ry rz
   end
   begin
      id 17
      name RightArm
      direction -1.000000 0.000000 0.000000
      length 10.955525
      axis 0.0 0.0 90.0 xyz
      dof rx ry rz
   end
   begin
      id 18
      name RightForeArm
      direction -1.000000 0.000000 0.000000
      length 8.193716
      axis 0.0 0.0 90.0 xyz
      dof ry rz rx
   end
   begin
      id 19
      name RightHand
      direction 0.000000 0.000000 0.000000
      length 0.000000
      axis 0.0 0.0 90.0 xyz
      dof rx ry rz
   end
   begin
      id 20
      name RightHand_dum1
      direction 0.000000 0.000000 0.000000
      length 0.000000
      axis 0.0 0.0 90.0 xyz
   end
   begin
      id 21
      name RightHand_dum2
      direction -1.000000 0.000000 0.000000
      length 3.937000
      axis 0.0 0.0 90.0 xyz
   end
   begin
      id 22
      name RightHandThumb1
      direction 0.000000 0.000000 1.000000
      length 3.937000
      axis 0.0 0.0 90.0 xyz
      dof rx rz ry
   end
   begin
      id 23
      name LeftUpLeg
      direction 0.000000 -1.000000 0.000000
      length 17.323638
      axis 0.0 0.0 0.0 xyz
      dof rx ry rz
   end
   begin
      id 24
      name LeftLeg
      direction 0.000000 -1.000000 0.000000
      length 16.270368
      axis 0.0 0.0 0.0 xyz
      dof rx ry rz
   end
   begin
      id 25
      name LeftFoot
      direction 0.000000 -0.258819 0.965926
      length 4.922846
      axis 15.0 0.0 0.0 xyz
      dof rx ry rz
   end
   begin
      id 26
      name LeftToeBase
      direction 0.000000 0.000000 1.000000
      length 2.952750
      axis 0.0 0.0 0.0 xyz
      dof rx ry rz
   end
   begin
      id 27
      name RightUpLeg
      direction 0.000000 -1.000000 0.000000
      length 17.323638
      axis 0.0 0.0 0.0 xyz
      dof rx ry rz
   end
   begin
      id 28
      name RightLeg
      direction 0.000000 -1.000000 0.000000
      length 16.270368
      axis 0.0 0.0 0.0 xyz
      dof rx ry rz
   end
   begin
      id 29
      name RightFoot
      direction 0.000000 -0.258819 0.965926
      length 4.922846
      axis 15.0 0.0 0.0 xyz
      dof rx ry rz
   end
   begin
      id 30
      name RightToeBase
      direction 0.000000 0.000000 1.000000
      length 2.952750
      axis 0.0 0.0 0.0 xyz
      dof rx ry rz
   end
:hierarchy
   begin
      root Spine_dum LeftUpLeg_dum RightUpLeg_dum
      Spine_dum Spine
      LeftUpLeg_dum LeftUpLeg
      RightUpLeg_dum RightUpLeg
      Spine Spine_dum1 Spine_dum2 Spine_dum3
      Spine_dum1 Head
      Spine_dum2 LeftShoulder
      Spine_dum3 RightShoulder
      LeftShoulder LeftArm
      LeftArm LeftForeArm
      LeftForeArm LeftHand
      LeftHand LeftHand_dum1 LeftHand_dum2
      LeftHand_dum1 LeftHandThumb1
      RightShoulder RightArm
      RightArm RightForeArm
      RightForeArm RightHand
      RightHand RightHand_dum1 RightHand_dum2
      RightHand_dum1 RightHandThumb1
      LeftUpLeg LeftLeg
      LeftLeg LeftFoot
      LeftFoot LeftToeBase
      RightUpLeg RightLeg
      RightLeg RightFoot
      RightFoot RightToeBase
   end

# File created by Blade
# Date/Time:  Fri Jan 16 17:19:08 2015
# Frame Rate: 120.000 fps
#------------------------------------------------------
:FULLY-SPECIFIED
:DEGREES
1633
root -5.411993 35.182555 -9.325946 -0.674038 -6.683671 -6.350531
Spine -2.196144 1.852138 10.011258
Head 4.734030 -4.406812 -10.309240
LeftShoulder -19.151370 13.178342 -15.864170
LeftArm 19.921873 -6.098983 -73.716293
LeftForeArm 14.485418 -0.000000 9.279261
LeftHand 0.456033 -0.000000 -6.037869
LeftHandThumb1 -26.253704 0.000000 33.147579
RightShoulder 0.252391 11.477311 -2.798580
RightArm -8.546569 35.622697 41.266621
RightForeArm 21.366900 0.000000 35.986290
RightHand 8.783521 -0.000000 1.288999
RightHandThumb1 -24.326973 -0.000000 -32.862282
LeftUpLeg 12.363487 15.136034 7.517496
LeftLeg -9.529616 -0.000000 0.000000
LeftFoot -16.540693 28.499561 -8.492559
LeftToeBase 22.772672 -0.000000 -0.000000
RightUpLeg 8.689700 -3.157879 4.598574
RightLeg -5.468955 -0.000000 0.000000
RightFoot -4.307853 -28.161477 3.732915
RightToeBase 13.544375 -0.000000 -0.000000
1634
root -5.410778 35.182553 -9.325873 -0.662828 -6.671859 -6.344346
Spine -2.206038 1.824189 10.025588
Head 4.717520 -4.330573 -10.337570
LeftShoulder -19.130043 13.180919 -15.849633
LeftArm 19.894653 -6.113290 -73.733432
LeftForeArm 14.474390 -0.000000 9.288438
LeftHand 0.467457 -0.000000 -6.013405
LeftHandThumb1 -26.253704 0.000000 33.147579
RightShoulder 0.237102 11.545279 -2.846447
RightArm -8.484169 35.625512 41.360208
RightForeArm 21.854138 -0.000000 34.487473
RightHand 8.616343 0.000000 0.508640
RightHandThumb1 -24.326973 -0.000000 -32.862282
LeftUpLeg 12.345395 15.140016 7.506754
LeftLeg -9.525123 -0.000000 0.000000
LeftFoot -16.541145 28.481591 -8.500429
LeftToeBase 22.765507 -0.000000 -0.000000
RightUpLeg 8.677935 -3.170078 4.590886
RightLeg -5.469010 -0.000000 0.000000
RightFoot -4.306599 -28.161966 3.725230
RightToeBase 13.562513 -0.000000 -0.000000
1635
root -5.409861 35.182579 -9.326049 -0.649044 -6.659275 -6.338148
Spine -2.213522 1.778667 10.036561
Head 4.685095 -4.246512 -10.353427
LeftShoulder -19.146276 13.178396 -15.847742
LeftArm 19.893490 -6.086989 -73.735917
LeftForeArm 14.458479 -0.000000 9.278304
LeftHand 0.481302 -0.000000 -5.972192
LeftHandThumb1 -26.253704 0.000000 33.147579
RightShoulder 0.229645 11.605008 -2.900140
RightArm -8.418325 35.589562 41.439351
RightForeArm 22.299969 -0.000000 32.924064
RightHand 8.695829 -0.000000 0.309558
RightHandThumb1 -24.326973 -0.000000 -32.862282
LeftUpLeg 12.325400 15.129610 7.493571
LeftLeg -9.522705 -0.000000 0.000000
LeftFoot -16.527621 28.483333 -8.486165
LeftToeBase 22.748158 -0.000000 -0.000000
RightUpLeg 8.664130 -3.166202 4.587073
RightLeg -5.471012 -0.000000 0.000000
RightFoot -4.304087 -28.182224 3.727118
RightToeBase 13.536144 -0.000000 -0.000000
1636
root -5.408963 35.183206 -9.325385 -0.645280 -6.641300 -6.332795
Spine -2.214750 1.735438 10.046050
Head 4.668204 -4.183636 -10.361297
LeftShoulder -19.140619 13.176067 -15.847435
LeftArm 19.877714 -6.072835 -73.730704
LeftForeArm 14.433784 -0.000000 9.290043
LeftHand 0.457500 0.000000 -5.955228
LeftHandThumb1 -26.253704 0.000000 33.147579
RightShoulder 0.218971 11.678824 -2.976887
RightArm -8.379480 35.547466 41.543075
RightForeArm 22.618535 -0.000000 31.442769
RightHand 8.470350 -0.000000 -0.011998
RightHandThumb1 -24.326973 -0.000000 -32.862282
LeftUpLeg 12.316247 15.105782 7.489348
LeftLeg -9.511325 -0.000000 0.000000
LeftFoot -16.486498 28.461381 -8.412503
LeftToeBase 22.729345 -0.000000 -0.000000
RightUpLeg 8.664094 -3.167292 4.580541
RightLeg -5.471600 -0.000000 0.000000
RightFoot -4.303199 -28.188668 3.719843
RightToeBase 13.535854 -0.000000 -0.000000
1637
root -5.408283 35.183321 -9.325489 -0.632623 -6.627430 -6.327261
Spine -2.222762 1.686262 10.053670
Head 4.635403 -4.119639 -10.358271
LeftShoulder -19.157408 13.184237 -15.859637
LeftArm 19.894344 -6.081153 -73.731389
LeftForeArm 14.447042 -0.000000 9.284166
LeftHand 0.447492 -0.000000 -6.014804
LeftHandThumb1 -26.253704 0.000000 33.147579
RightShoulder 0.212773 11.767190 -3.073325
RightArm -8.359245 35.433808 41.674669
RightForeArm 22.937934 0.000000 29.989091
RightHand 8.370152 -0.000000 -0.410180
RightHandThumb1 -24.326973 -0.000000 -32.862282
LeftUpLeg 12.295749 15.114374 7.476234
LeftLeg -9.513880 -0.000000 0.000000
LeftFoot -16.528520 28.458033 -8.503492
LeftToeBase 22.736449 -0.000000 -0.000000
RightUpLeg 8.651951 -3.171141 4.576099
RightLeg -5.473260 -0.000000 0.000000
RightFoot -4.312778 -28.199729 3.746543
RightToeBase 13.504604 -0.000000 -0.000000
